# xmcd CD database file
#
# Track frame offsets:
#	150
#	24124
#	55629
#	92689
#	116457
#	144345
#	158955
#	187589
#	205802
#	223730
#	258546
#	277785
#
# Disc length: 4296 seconds
#
# Revision: 0
# Processed by: cddbd v1.5.2PL0 Copyright (c) Steve Scherf et al.
# Submitted via: CDex 1.79
#
DISCID=9710c60c
DTITLE=Emergence - Africa Express
DYEAR=2007
DGENRE=Jazz
TTITLE0=Simple Hymn
TTITLE1=Jumpin'
TTITLE2=Clara's Nocturne
TTITLE3=Abdullah
TTITLE4=Clumsy-Hand
TTITLE5=Tuesday
TTITLE6=Pearls Of Okinawa
TTITLE7=Emergency Blues
TTITLE8=Mousso Kakene
TTITLE9=Sahel
TTITLE10=Zim
TTITLE11=Adjame
EXTD=YEAR: 2007
EXTT0=
EXTT1=
EXTT2=
EXTT3=
EXTT4=
EXTT5=
EXTT6=
EXTT7=
EXTT8=
EXTT9=
EXTT10=
EXTT11=
PLAYORDER=
